<?xml version="1.0" standalone="no"?>
<!DOCTYPE svg PUBLIC "-//W3C//DTD SVG 20010904//EN"
 "http://www.w3.org/TR/2001/REC-SVG-20010904/DTD/svg10.dtd">
<svg version="1.0" xmlns="../../../../external.html?link=http://www.w3.org/2000/svg"
 width="700.000000pt" height="700.000000pt" viewBox="0 0 700.000000 700.000000"
 preserveAspectRatio="xMidYMid meet">
<metadata>
Created by potrace 1.14, written by Peter Selinger 2001-2017
</metadata>
<g transform="translate(0.000000,700.000000) scale(0.100000,-0.100000)"
fill="#000000" stroke="none">
<path d="M1156 6984 c-354 -59 -676 -253 -880 -529 -136 -184 -215 -367 -256
-590 -17 -95 -18 -213 -16 -2390 1 -1259 5 -2301 9 -2315 4 -14 10 -38 13 -55
45 -249 181 -508 363 -693 214 -217 476 -350 781 -396 144 -23 4526 -21 4675
1 169 25 348 92 505 186 338 205 577 569 637 967 9 65 11 4584 1 4650 -36 244
-142 489 -295 678 -198 244 -522 435 -813 478 -19 3 -53 10 -75 15 -23 4
-1028 8 -2305 7 -1831 0 -2280 -3 -2344 -14z"/>
</g>
</svg>
